<svg xmlns="http://www.w3.org/2000/svg" version="1.1" xmlns:xlink="http://www.w3.org/1999/xlink" width="512" height="512" x="0" y="0" viewBox="0 0 478 478.383" style="enable-background:new 0 0 512 512" xml:space="preserve" class=""><g><path d="M423.2 176.672a174.764 174.764 0 0 0-123.13-50.29c-5.793 0-11.539.266-17.242.802-93.605 8.949-163.64 89.906-159.031 183.828s82.238 167.629 176.273 167.37c5.793 0 11.54-.265 17.239-.8 68.046-6.71 126.05-52.223 148.75-116.723 22.699-64.5 5.984-136.308-42.86-184.156zm-6.137 234.512a175.368 175.368 0 0 0-32.739-23.29 298.51 298.51 0 0 0 11.531-77.511h63.825a158.078 158.078 0 0 1-42.618 100.8zm-14.258 13.648a153.44 153.44 0 0 1-5.23 4.223 163.838 163.838 0 0 1-6.77 4.945c-1.825 1.262-3.657 2.512-5.528 3.695a209.735 209.735 0 0 1-7.199 4.246c-1.922 1.075-3.832 2.153-5.785 3.145-2.504 1.273-5.055 2.402-7.613 3.55-1.977.876-3.946 1.778-5.953 2.571-2.657 1.047-5.368 1.941-8.082 2.848-.672.222-1.344.449-2.016.656a153.013 153.013 0 0 0 30.473-51.375 159.855 159.855 0 0 1 26.609 18.902c-.969.88-1.914 1.785-2.906 2.617zM241.398 451.23c-2-.8-3.945-1.68-5.906-2.543-2.582-1.144-5.16-2.304-7.68-3.585-1.925-.977-3.816-2.047-5.71-3.102-2.457-1.379-4.887-2.793-7.274-4.297-1.848-1.168-3.644-2.402-5.445-3.64a144.656 144.656 0 0 1-6.863-5.016 157.206 157.206 0 0 1-5.145-4.152c-1-.84-1.96-1.754-2.953-2.625a159.693 159.693 0 0 1 26.61-18.903 153.067 153.067 0 0 0 30.468 51.375l-1.973-.64c-2.73-.918-5.457-1.825-8.129-2.88zm-58.32-257.648a175.469 175.469 0 0 0 32.734 23.29 298.672 298.672 0 0 0-11.527 77.51h-63.824a158.058 158.058 0 0 1 42.617-100.8zm14.254-13.648a168.186 168.186 0 0 1 5.234-4.223 166.395 166.395 0 0 1 6.766-4.945c1.824-1.262 3.656-2.512 5.531-3.696 2.36-1.488 4.797-2.886 7.2-4.246 1.917-1.074 3.832-2.152 5.785-3.144 2.504-1.274 5.054-2.403 7.613-3.555 1.976-.871 3.945-1.773 5.953-2.566 2.656-1.047 5.367-1.946 8.078-2.848.672-.223 1.344-.45 2.02-.656a153.013 153.013 0 0 0-30.473 51.375 159.693 159.693 0 0 1-26.61-18.903c.97-.882 1.915-1.746 2.903-2.617zm161.41-26.399c2 .8 3.945 1.68 5.903 2.543 2.585 1.145 5.16 2.305 7.68 3.586 1.929.973 3.823 2.047 5.714 3.102a162.004 162.004 0 0 1 7.27 4.296 171.973 171.973 0 0 1 5.457 3.641c2.32 1.598 4.609 3.277 6.855 5.016a164.889 164.889 0 0 1 5.145 4.152c1 .84 1.96 1.75 2.953 2.625a159.855 159.855 0 0 1-26.61 18.902 153.013 153.013 0 0 0-30.472-51.375l1.976.641c2.73.918 5.457 1.824 8.13 2.918zm-66.672 68.488a158.995 158.995 0 0 1-56.297-13.242c13.184-35.758 33.465-60.8 56.297-65.597zm0 16v56.36h-71.793a282.233 282.233 0 0 1 10.457-70.281A175.116 175.116 0 0 0 292.07 238zm0 72.36v56.383a175.116 175.116 0 0 0-61.336 13.898 282.233 282.233 0 0 1-10.457-70.281zm0 72.36v78.839c-22.832-4.8-43.113-29.816-56.297-65.602a158.99 158.99 0 0 1 56.297-13.238zm16 0a159.01 159.01 0 0 1 56.297 13.237c-13.183 35.762-33.465 60.801-56.297 65.602zm0-16v-56.36h71.793a282.233 282.233 0 0 1-10.457 70.281 175.136 175.136 0 0 0-61.336-13.898zm0-72.36V238a175.136 175.136 0 0 0 61.336-13.898 282.233 282.233 0 0 1 10.457 70.28zm0-72.36v-78.8c22.832 4.8 43.114 29.816 56.297 65.601a159.065 159.065 0 0 1-56.297 13.2zm-103.785 88.36a298.682 298.682 0 0 0 11.528 77.535 175.35 175.35 0 0 0-32.735 23.266 158.037 158.037 0 0 1-42.617-100.801zm191.57-16a298.686 298.686 0 0 0-11.53-77.535 175.559 175.559 0 0 0 32.737-23.266 158.029 158.029 0 0 1 42.618 100.8zM76.07 187.063a15.945 15.945 0 0 0 11.313-4.68l135.765-135.77c6.247-6.246 6.247-16.375 0-22.62L206.184 7.015c-9.383-9.356-24.563-9.356-33.946 0l-36.047 36.047L57.047 15.46a8.003 8.003 0 0 0-8.29 1.906L30.814 35.301a8.02 8.02 0 0 0-2.286 6.453 7.994 7.994 0 0 0 3.543 5.86l59.766 39.84-27.902 27.913-34.13-24.344a7.997 7.997 0 0 0-10.304.856L2.535 108.848c-3.125 3.12-3.125 8.187 0 11.312l62.223 62.223a15.939 15.939 0 0 0 11.312 4.68zM49.023 39.719l7.504-7.496 67.094 23.406-20.289 20.289zm-23 68.261 34.086 24.348a8.002 8.002 0 0 0 10.305-.86L183.551 18.337a7.997 7.997 0 0 1 11.32 0L211.836 35.3 76.07 171.07 19.5 114.503zm0 0" fill="#000000" opacity="1" data-original="#000000" class=""></path><path d="m172.238 40.957 11.317-11.309 11.308 11.317-11.316 11.308zM333.14 45.512c-5.144-2-10.398-3.825-15.671-5.434l-4.672 15.305c4.883 1.496 9.777 3.199 14.562 5.039zM268.629 30.98a228.452 228.452 0 0 0-16.559-.597v16c5.145 0 10.32.183 15.39.558zM363.078 59.773a224.96 224.96 0 0 0-14.695-7.687l-6.89 14.45a205.47 205.47 0 0 1 13.648 7.136zM301.438 35.84c-5.368-1.211-10.856-2.258-16.313-3.059l-2.344 15.824c5.074.754 10.16 1.704 15.137 2.817zM422.813 135.559l13.12-9.176a227.795 227.795 0 0 0-9.976-13.242l-12.414 10.097c3.223 3.946 6.344 8.121 9.27 12.32zM390.566 78.328a217.462 217.462 0 0 0-13.41-9.785l-8.933 13.262a210.455 210.455 0 0 1 12.422 9.074zM450.078 190.527l15.2-4.898a224.914 224.914 0 0 0-5.665-15.582l-14.824 6.016a188.361 188.361 0 0 1 5.29 14.464zM438.512 162.047l14.324-7.129a224.74 224.74 0 0 0-7.926-14.566l-13.762 8.152a206.688 206.688 0 0 1 7.364 13.543zM415.023 100.688c-3.753-4-7.73-7.899-11.816-11.641l-10.8 11.808c3.808 3.48 7.495 7.11 10.976 10.81zM112.773 429.813a223.88 223.88 0 0 0 13.36 9.843l9-13.234a206.201 206.201 0 0 1-12.406-9.129zM170.047 462.887a226.07 226.07 0 0 0 15.656 5.496l4.734-15.281c-4.87-1.512-9.769-3.2-14.535-5.102zM53.766 317.336l-15.246 4.797a224.462 224.462 0 0 0 5.597 15.61l14.84-5.954c-1.91-4.742-3.687-9.613-5.191-14.453zM80.813 372.445 67.62 381.52c3.09 4.48 6.402 8.949 9.938 13.293l12.445-10.032a192.23 192.23 0 0 1-9.192-12.336zM65.223 345.879l-14.36 7.062c2.453 5 5.094 9.914 7.856 14.61l13.8-8.106a207.427 207.427 0 0 1-7.296-13.566zM88.422 407.336c3.785 4.047 7.742 8 11.77 11.687l10.84-11.761a202.917 202.917 0 0 1-10.923-10.856zM44.07 256.719l-16 .16c.055 5.48.32 11.047.801 16.558l15.934-1.343a226.285 226.285 0 0 1-.735-15.375zM46.68 287.39l-15.793 2.52a228.318 228.318 0 0 0 3.199 16.274l15.574-3.68a211.98 211.98 0 0 1-2.98-15.113zM28.5 240.3l16 1c.32-5.077.8-10.238 1.523-15.343l-15.859-2.144c-.773 5.48-1.293 11.027-1.664 16.488zM52.148 196.781l-15.375-4.414c-1.441 5-2.71 10.078-3.785 15.094l15.657 3.336a204.046 204.046 0 0 1 3.503-14.016zM140.184 448.477a220.294 220.294 0 0 0 14.664 7.753l6.949-14.398a209.582 209.582 0 0 1-13.598-7.203zm0 0" fill="#000000" opacity="1" data-original="#000000" class=""></path></g></svg>